HD DESI ROCKERS RELEASES


INFO:

Title..................: The Da Vinci Code
Year...................: 2006 
Genre..................: Mystery | Thriller
Directer...............: Ron Howard
Run time...............: 2h 22mn 43sec
size ..................: 925 MB
Languages..............: English.Hindi

___________________________________________________________________________

Video

Format                           : MKV
Duration                         : 2h 22mn 43sec
Display aspect ratio             : 16:9
Resolution                       : 524*212
Stream size                      : 693 MiB 
_______________________________________________________________________________


Audio #1 :English
ID                               : 1
Format                           : MPEG 1 Layer 3
Duration                         : 2h 22mn 43 sec
Bit rate mode                    : Constant
Bit rate                         : 96 Kbps
Channel(s)                       : 2 channels
Channel positions                : Front: L R
Sampling rate                    : 48.0 KHz
Stream size                      : 98 MiB 

____________________________________________________________________________


Audio #2 :Hindi
ID                               : 2
Format                           : MPEG 1 Layer 3 
Duration                         : 2h 22mn 43sec
Bit rate mode                    : Constant
Bit rate                         : 128 Kbps
Channel(s)                       : 2 channels
Channel positions                : Front: L R
Sampling rate                    : 44100 Hz
Stream size                      : 130 MiB
__________________________________________________________________________



Seeding at 2:00 AM ISt - 8:00 AM ISt
Please wait during seeding
Plz seed after download
Thankyou...

 
http://img682.imageshack.us/img682/91/68753964.jpg 
http://img228.imageshack.us/img228/1290/61792529.jpg 
http://img217.imageshack.us/img217/6991/86592228.jpg 
http://img30.imageshack.us/img30/5218/54709692.jpg
